<svg width="842" height="256" xmlns="http://www.w3.org/2000/svg"><g fill="none" fill-rule="evenodd"><path d="M258.33 111v32.29c0 2.33 0 4.65-.13 7-1.42 22.35-10.33 43-24.8 60.07a126.05 126.05 0 0 1-27.51 23.89 133.71 133.71 0 0 1-26.22 12.92 144.12 144.12 0 0 1-30.23 7.49A155.86 155.86 0 0 1 130.2 256h-1C58.38 256 .65 206.53 0 145.05v-32.29C-.51 51 56.83.52 128.13 0h1.17C200 0 257.81 49.34 258.33 111z" fill="#333"/><path d="M129.22 11.13h-.93c-64.17.51-115.9 46-115.32 101.48.47 55.27 52.54 99.87 116.25 99.87h.93c64.16-.4 115.78-46 115.31-101.48-.58-55.27-52.54-99.87-116.24-99.87zm.78 190.18h-.81c-56.5 0-102.88-39.77-103.35-88.8-.2-23.76 10.38-46.31 29.79-63.42 19.41-17.11 45.22-26.58 72.77-26.78h.82c56.49 0 102.87 39.87 103.34 88.79C233 160.43 187 200.9 130 201.31z" fill="#FFF" fill-rule="nonzero"/><path d="M163.72 152.35a10 10 0 0 1-4.63-1c-1.86-.9-3.14-1.81-4.65-5.13-.7-1.51-2.46-5.91-2.56-6.14l-25.69-68.54 17.56-4.83a38.72 38.72 0 0 1 10.75-1.85c5.64 0 11.65 1.92 20.29 7.49 3-.91 5.34-1.48 5.46-1.52L166 51.2l-53.87 15.21-53.71 15.1 1.63 23.15c.12 0 2.44-.71 5.46-1.51 5.24-14.6 11.4-17.72 21.39-20.44l17.44-4.93L130 146.24c.09.23 1.74 4.73 2.21 6.24.93 3.52.58 4.83-.35 6.64-2 3.73-7.79 5.44-16.86 8 .82 2 2.25 5.65 2.33 5.84l31.5-8.86 31.51-8.86c-.08-.19-1.52-3.83-2.21-5.84-6.13 1.66-10.75 2.95-14.41 2.95z" fill="#FFF"/><path fill="#333" d="M358.47 74.26v97.16H330.6V74.26h-26.23V50.75h80.33v23.51z"/><path fill="#333" d="M414.15 161.11l-38.54-70.37h30l22.8 43.78 22.29-43.78H480l-64.94 122.12h-29.31z"/><path d="M517.22 212.86h-26.06V90.74h26.06v9.58A30.16 30.16 0 0 1 542.36 88c14.48 0 23.52 6.34 28.59 11.39 7.24 7.24 12.12 18.28 12.12 31.49 0 13.92-4.88 24.42-12.84 32.39-7.96 7.97-16.65 10.85-27.32 10.85-16.1 0-23-8.14-25.69-11.95v50.69zm4.34-96.44a21.6 21.6 0 0 0-6.15 14.84 20.9 20.9 0 0 0 5.79 14.29 21.25 21.25 0 0 0 14.8 6.16 20.65 20.65 0 0 0 14-5.61 22.08 22.08 0 0 0 6.34-15.38A20.07 20.07 0 0 0 536 110.45a20.07 20.07 0 0 0-14.44 5.97z" fill="#333" fill-rule="nonzero"/><path fill="#333" d="M626.07 39.52v131.9H600V39.52z"/><path d="M725.74 161.11c-7.24 7.24-19.54 13-35.29 13s-28-5.79-35.28-13c-8.13-8.14-12.12-19.72-12.12-30 0-10.28 4-21.88 12.12-30 7.24-7.23 19.55-13 35.28-13s28 5.79 35.29 13c8.14 8.15 12.12 19.73 12.12 30s-3.98 21.89-12.12 30zm-49.94-45.24c-3.8 3.81-6 8.69-6 15.2 0 7.42 2.9 12.12 6 15.2 3.26 3.26 8 5.79 14.84 5.79a19.77 19.77 0 0 0 14.47-5.79c3.8-3.79 6-8.68 6-15.2s-2.17-11.39-6-15.2c-8.245-7.72-21.065-7.72-29.31 0zM815.42 90.74h26.06v75.8c0 11.39-.55 24.25-10 34.37-9.95 10.68-25.15 12-34 12-10.68 0-23.52-1.63-33.65-10.32a35.91 35.91 0 0 1-12.12-21.34h28.4a13.41 13.41 0 0 0 5.79 8c3.07 2 7.42 2.71 11.22 2.71 7.41 0 11.22-2.71 13-4.34 5.06-4.89 5.24-13.39 5.24-16.82v-9.24c-3.07 5.07-9.22 12.12-24.06 12.12-12.49 0-22.08-4-29.49-11.4-6.52-6.68-11.77-16.46-11.77-30.39 0-13.74 5.07-25.15 11.95-32.2C766.93 94.53 776.34 88 791.36 88c14.65 0 21.17 7.77 24.06 12.12v-9.38zM783 115.87c-4 3.81-6.16 10.15-6.16 15a21.38 21.38 0 0 0 5.61 14.48c3.62 3.79 8.51 5.77 14.66 5.77a20.13 20.13 0 0 0 14.11-5.23 21.32 21.32 0 0 0 6.33-15.39 20.48 20.48 0 0 0-6.15-14.83c-3.8-3.43-9.41-5.06-14.11-5.06a21.22 21.22 0 0 0-14.29 5.26z" fill="#333" fill-rule="nonzero"/></g></svg>